<?xml version="1.0" encoding="UTF-8" standalone="no"?>
<!-- Created with Inkscape (http://www.inkscape.org/) -->

<svg
   xmlns:dc="http://purl.org/dc/elements/1.1/"
   xmlns:cc="http://creativecommons.org/ns#"
   xmlns:rdf="http://www.w3.org/1999/02/22-rdf-syntax-ns#"
   xmlns:svg="http://www.w3.org/2000/svg"
   xmlns="http://www.w3.org/2000/svg"
   xmlns:sodipodi="http://sodipodi.sourceforge.net/DTD/sodipodi-0.dtd"
   xmlns:inkscape="http://www.inkscape.org/namespaces/inkscape"
   width="744.09448819"
   height="1052.3622047"
   id="svg19616"
   version="1.1"
   inkscape:version="0.48.3.1 r9886"
   sodipodi:docname="most_radical.svg"
   inkscape:export-filename="/home/vik/vikparuchuri/political-positions/most_radical.png"
   inkscape:export-xdpi="93.333336"
   inkscape:export-ydpi="93.333336">
  <defs
     id="defs19618" />
  <sodipodi:namedview
     id="base"
     pagecolor="#ffffff"
     bordercolor="#666666"
     borderopacity="1.0"
     inkscape:pageopacity="0.0"
     inkscape:pageshadow="2"
     inkscape:zoom="0.7"
     inkscape:cx="685.70345"
     inkscape:cy="343.76056"
     inkscape:document-units="px"
     inkscape:current-layer="layer1"
     showgrid="false"
     inkscape:window-width="1855"
     inkscape:window-height="1176"
     inkscape:window-x="65"
     inkscape:window-y="24"
     inkscape:window-maximized="1" />
  <metadata
     id="metadata19621">
    <rdf:RDF>
      <cc:Work
         rdf:about="">
        <dc:format>image/svg+xml</dc:format>
        <dc:type
           rdf:resource="http://purl.org/dc/dcmitype/StillImage" />
        <dc:title></dc:title>
      </cc:Work>
    </rdf:RDF>
  </metadata>
  <g
     inkscape:label="Layer 1"
     inkscape:groupmode="layer"
     id="layer1">
    <flowRoot
       xml:space="preserve"
       id="flowRoot19624"
       style="font-size:40px;font-style:normal;font-variant:normal;font-weight:bold;font-stretch:normal;line-height:125%;letter-spacing:0px;word-spacing:0px;fill:#0000ff;fill-opacity:1;stroke:none;font-family:Simpsonfont;-inkscape-font-specification:Simpsonfont Bold"
       transform="matrix(1,0,0,0.90778602,3.4501786,-34.706881)"><flowRegion
         id="flowRegion19626"><rect
           id="rect19628"
           width="144.28572"
           height="48.57143"
           x="44.285713"
           y="152.36218"
           style="font-size:40px;fill:#0000ff;fill-opacity:1" /></flowRegion><flowPara
         id="flowPara19630"
         style="font-size:40px;font-family:'Lobster 1.4';-inkscape-font-specification:'Lobster 1.4';fill:#0000ff;fill-opacity:1">1.</flowPara></flowRoot>    <flowRoot
       style="font-size:40px;font-style:normal;font-variant:normal;font-weight:bold;font-stretch:normal;line-height:125%;letter-spacing:0px;word-spacing:0px;fill:#0000ff;fill-opacity:1;stroke:none;font-family:Simpsonfont;-inkscape-font-specification:Simpsonfont Bold"
       id="flowRoot19632"
       xml:space="preserve"
       transform="matrix(1,0,0,0.90778602,4.7301786,35.0912)"><flowRegion
         id="flowRegion19634"><rect
           style="font-size:40px;fill:#0000ff;fill-opacity:1"
           y="152.36218"
           x="44.285713"
           height="48.57143"
           width="144.28572"
           id="rect19636" /></flowRegion><flowPara
         style="font-size:40px;font-family:'Lobster 1.4';-inkscape-font-specification:'Lobster 1.4';fill:#0000ff;fill-opacity:1"
         id="flowPara19638">2.</flowPara></flowRoot>    <flowRoot
       transform="matrix(1,0,0,0.90778602,4.0501786,105.36142)"
       xml:space="preserve"
       id="flowRoot19640"
       style="font-size:40px;font-style:normal;font-variant:normal;font-weight:bold;font-stretch:normal;line-height:125%;letter-spacing:0px;word-spacing:0px;fill:#ff0000;fill-opacity:1;stroke:none;font-family:Simpsonfont;-inkscape-font-specification:Simpsonfont Bold"><flowRegion
         id="flowRegion19642"><rect
           id="rect19644"
           width="144.28572"
           height="48.57143"
           x="44.285713"
           y="152.36218"
           style="font-size:40px;fill:#ff0000;fill-opacity:1" /></flowRegion><flowPara
         id="flowPara19646"
         style="font-size:40px;font-family:'Lobster 1.4';-inkscape-font-specification:'Lobster 1.4';fill:#ff0000;fill-opacity:1">3.</flowPara></flowRoot>    <flowRoot
       style="font-size:40px;font-style:normal;font-variant:normal;font-weight:bold;font-stretch:normal;line-height:125%;letter-spacing:0px;word-spacing:0px;fill:#0000ff;fill-opacity:1;stroke:none;font-family:Simpsonfont;-inkscape-font-specification:Simpsonfont Bold"
       id="flowRoot19648"
       xml:space="preserve"
       transform="matrix(1,0,0,0.90778602,3.9701786,175.4501)"><flowRegion
         id="flowRegion19650"><rect
           style="font-size:40px;fill:#0000ff"
           y="152.36218"
           x="44.285713"
           height="48.57143"
           width="144.28572"
           id="rect19652" /></flowRegion><flowPara
         style="font-size:40px;font-family:'Lobster 1.4';-inkscape-font-specification:'Lobster 1.4';fill:#0000ff"
         id="flowPara19654">4.</flowPara></flowRoot>    <flowRoot
       transform="matrix(1,0,0,0.90778602,3.6901786,245.46612)"
       xml:space="preserve"
       id="flowRoot19656"
       style="font-size:40px;font-style:normal;font-variant:normal;font-weight:bold;font-stretch:normal;line-height:125%;letter-spacing:0px;word-spacing:0px;fill:#0000ff;fill-opacity:1;stroke:none;font-family:Simpsonfont;-inkscape-font-specification:Simpsonfont Bold"><flowRegion
         id="flowRegion19658"><rect
           id="rect19660"
           width="144.28572"
           height="48.57143"
           x="44.285713"
           y="152.36218"
           style="font-size:40px;fill:#0000ff" /></flowRegion><flowPara
         id="flowPara19662"
         style="font-size:40px;font-family:'Lobster 1.4';-inkscape-font-specification:'Lobster 1.4';fill:#0000ff">5.</flowPara></flowRoot>    <flowRoot
       style="font-size:40px;font-style:normal;font-variant:normal;font-weight:bold;font-stretch:normal;line-height:125%;letter-spacing:0px;word-spacing:0px;fill:#ff0000;fill-opacity:1;stroke:none;font-family:Simpsonfont;-inkscape-font-specification:Simpsonfont Bold"
       id="flowRoot19664"
       xml:space="preserve"
       transform="matrix(1,0,0,0.90778602,3.6501786,315.51841)"><flowRegion
         id="flowRegion19666"><rect
           style="font-size:40px;fill:#ff0000;fill-opacity:1"
           y="152.36218"
           x="44.285713"
           height="48.57143"
           width="144.28572"
           id="rect19668" /></flowRegion><flowPara
         style="font-size:40px;font-family:'Lobster 1.4';-inkscape-font-specification:'Lobster 1.4';fill:#ff0000;fill-opacity:1"
         id="flowPara19670">6.</flowPara></flowRoot>    <flowRoot
       transform="matrix(1,0,0,0.90778602,2.9701786,385.60703)"
       xml:space="preserve"
       id="flowRoot19672"
       style="font-size:40px;font-style:normal;font-variant:normal;font-weight:bold;font-stretch:normal;line-height:125%;letter-spacing:0px;word-spacing:0px;fill:#ff0000;fill-opacity:1;stroke:none;font-family:Simpsonfont;-inkscape-font-specification:Simpsonfont Bold"><flowRegion
         id="flowRegion19674"><rect
           id="rect19676"
           width="144.28572"
           height="48.57143"
           x="44.285713"
           y="152.36218"
           style="font-size:40px;fill:#ff0000;fill-opacity:1" /></flowRegion><flowPara
         id="flowPara19678"
         style="font-size:40px;font-family:'Lobster 1.4';-inkscape-font-specification:'Lobster 1.4';fill:#ff0000;fill-opacity:1">7.</flowPara></flowRoot>    <flowRoot
       style="font-size:40px;font-style:normal;font-variant:normal;font-weight:bold;font-stretch:normal;line-height:125%;letter-spacing:0px;word-spacing:0px;fill:#ff0000;fill-opacity:1;stroke:none;font-family:Simpsonfont;-inkscape-font-specification:Simpsonfont Bold"
       id="flowRoot19680"
       xml:space="preserve"
       transform="matrix(1,0,0,0.90778602,4.6101786,455.62304)"><flowRegion
         id="flowRegion19682"><rect
           style="font-size:40px;fill:#ff0000;fill-opacity:1"
           y="152.36218"
           x="44.285713"
           height="48.57143"
           width="144.28572"
           id="rect19684" /></flowRegion><flowPara
         style="font-size:40px;font-family:'Lobster 1.4';-inkscape-font-specification:'Lobster 1.4';fill:#ff0000;fill-opacity:1"
         id="flowPara19686">8.</flowPara></flowRoot>    <flowRoot
       transform="matrix(1,0,0,0.90778602,3.1301786,525.67536)"
       xml:space="preserve"
       id="flowRoot19688"
       style="font-size:40px;font-style:normal;font-variant:normal;font-weight:bold;font-stretch:normal;line-height:125%;letter-spacing:0px;word-spacing:0px;fill:#ff0000;fill-opacity:1;stroke:none;font-family:Simpsonfont;-inkscape-font-specification:Simpsonfont Bold"><flowRegion
         id="flowRegion19690"><rect
           id="rect19692"
           width="144.28572"
           height="48.57143"
           x="44.285713"
           y="152.36218"
           style="font-size:40px;fill:#ff0000;fill-opacity:1" /></flowRegion><flowPara
         id="flowPara19694"
         style="font-size:40px;font-family:'Lobster 1.4';-inkscape-font-specification:'Lobster 1.4';fill:#ff0000;fill-opacity:1">9.</flowPara></flowRoot>    <flowRoot
       style="font-size:40px;font-style:normal;font-variant:normal;font-weight:bold;font-stretch:normal;line-height:125%;letter-spacing:0px;word-spacing:0px;fill:#ff0000;fill-opacity:1;stroke:none;font-family:Simpsonfont;-inkscape-font-specification:Simpsonfont Bold"
       id="flowRoot19696"
       xml:space="preserve"
       transform="matrix(1,0,0,0.90778602,3.4501786,595.58244)"><flowRegion
         id="flowRegion19698"><rect
           style="font-size:40px;fill:#ff0000;fill-opacity:1"
           y="152.36218"
           x="44.285713"
           height="48.57143"
           width="144.28572"
           id="rect19700" /></flowRegion><flowPara
         style="font-size:40px;font-family:'Lobster 1.4';-inkscape-font-specification:'Lobster 1.4';fill:#ff0000;fill-opacity:1"
         id="flowPara19702">10.</flowPara></flowRoot>    <flowRoot
       transform="matrix(1,0,0,0.90778602,3.4501786,665.81632)"
       xml:space="preserve"
       id="flowRoot19704"
       style="font-size:40px;font-style:normal;font-variant:normal;font-weight:bold;font-stretch:normal;line-height:125%;letter-spacing:0px;word-spacing:0px;fill:#ff0000;fill-opacity:1;stroke:none;font-family:Simpsonfont;-inkscape-font-specification:Simpsonfont Bold"><flowRegion
         id="flowRegion19706"><rect
           id="rect19708"
           width="144.28572"
           height="48.57143"
           x="44.285713"
           y="152.36218"
           style="font-size:40px;fill:#ff0000;fill-opacity:1" /></flowRegion><flowPara
         id="flowPara19710"
         style="font-size:40px;font-family:'Lobster 1.4';-inkscape-font-specification:'Lobster 1.4';fill:#ff0000;fill-opacity:1">11.</flowPara></flowRoot>    <flowRoot
       style="font-size:40px;font-style:normal;font-variant:normal;font-weight:bold;font-stretch:normal;line-height:125%;letter-spacing:0px;word-spacing:0px;fill:#ff0000;fill-opacity:1;stroke:none;font-family:Simpsonfont;-inkscape-font-specification:Simpsonfont Bold"
       id="flowRoot19712"
       xml:space="preserve"
       transform="matrix(1,0,0,0.90778602,9.1644643,735.61446)"><flowRegion
         id="flowRegion19714"><rect
           style="font-size:40px;fill:#ff0000"
           y="152.36218"
           x="44.285713"
           height="48.57143"
           width="144.28572"
           id="rect19716" /></flowRegion><flowPara
         style="font-size:40px;font-family:'Lobster 1.4';-inkscape-font-specification:'Lobster 1.4';fill:#ff0000"
         id="flowPara19718">12.</flowPara></flowRoot>    <flowRoot
       xml:space="preserve"
       id="flowRoot19720"
       style="fill:black;stroke:none;stroke-opacity:1;stroke-width:1px;stroke-linejoin:miter;stroke-linecap:butt;fill-opacity:1;font-family:Simpsonfont;font-style:normal;font-weight:bold;font-size:40px;line-height:125%;letter-spacing:0px;word-spacing:0px;-inkscape-font-specification:Simpsonfont Bold;font-stretch:normal;font-variant:normal"><flowRegion
         id="flowRegion19722"><rect
           id="rect19724"
           width="427.14285"
           height="898.57141"
           x="-108.57143"
           y="32.362183" /></flowRegion><flowPara
         id="flowPara19726" /></flowRoot>    <flowRoot
       transform="matrix(1,0,0,0.90778602,162.62161,-29.519533)"
       style="font-size:40px;font-style:normal;font-variant:normal;font-weight:bold;font-stretch:normal;line-height:125%;letter-spacing:0px;word-spacing:0px;fill:#0000ff;fill-opacity:1;stroke:none;font-family:Simpsonfont;-inkscape-font-specification:Simpsonfont Bold"
       id="flowRoot19728"
       xml:space="preserve"><flowRegion
         id="flowRegion19730"><rect
           style="font-size:40px;fill:#0000ff;fill-opacity:1"
           y="152.36218"
           x="44.285713"
           height="55.714283"
           width="190.00002"
           id="rect19732" /></flowRegion><flowPara
         style="font-size:40px;font-family:'Lobster 1.4';-inkscape-font-specification:'Lobster 1.4';fill:#0000ff;fill-opacity:1"
         id="flowPara19734">Kerry (MA)</flowPara></flowRoot>    <flowRoot
       xml:space="preserve"
       id="flowRoot19736"
       style="font-size:40px;font-style:normal;font-variant:normal;font-weight:bold;font-stretch:normal;line-height:125%;letter-spacing:0px;word-spacing:0px;fill:#0000ff;fill-opacity:1;stroke:none;font-family:Simpsonfont;-inkscape-font-specification:Simpsonfont Bold"
       transform="matrix(1,0,0,0.90778602,160.18161,39.566571)"><flowRegion
         id="flowRegion19738"><rect
           id="rect19740"
           width="232.85715"
           height="52.85714"
           x="44.285713"
           y="152.36218"
           style="font-size:40px;fill:#0000ff;fill-opacity:1" /></flowRegion><flowPara
         id="flowPara19742"
         style="font-size:40px;font-family:'Lobster 1.4';-inkscape-font-specification:'Lobster 1.4';fill:#0000ff;fill-opacity:1">Markey (MA)</flowPara></flowRoot>    <flowRoot
       transform="matrix(1,0,0,0.90778602,162.10161,108.65259)"
       style="font-size:40px;font-style:normal;font-variant:normal;font-weight:bold;font-stretch:normal;line-height:125%;letter-spacing:0px;word-spacing:0px;fill:#ff0000;fill-opacity:1;stroke:none;font-family:Simpsonfont;-inkscape-font-specification:Simpsonfont Bold"
       id="flowRoot19744"
       xml:space="preserve"><flowRegion
         id="flowRegion19746"><rect
           style="font-size:40px;fill:#ff0000;fill-opacity:1"
           y="152.36218"
           x="44.285713"
           height="57.142857"
           width="222.85716"
           id="rect19748" /></flowRegion><flowPara
         style="font-size:40px;font-family:'Lobster 1.4';-inkscape-font-specification:'Lobster 1.4';fill:#ff0000;fill-opacity:1"
         id="flowPara19750">Chiesa (NJ)</flowPara></flowRoot>    <flowRoot
       xml:space="preserve"
       id="flowRoot19752"
       style="font-size:40px;font-style:normal;font-variant:normal;font-weight:bold;font-stretch:normal;line-height:125%;letter-spacing:0px;word-spacing:0px;fill:#0000ff;fill-opacity:1;stroke:none;font-family:Simpsonfont;-inkscape-font-specification:Simpsonfont Bold"
       transform="matrix(1,0,0,0.90778602,162.62161,177.73865)"><flowRegion
         id="flowRegion19754"><rect
           id="rect19756"
           width="290"
           height="58.571419"
           x="44.285713"
           y="152.36218"
           style="font-size:40px;fill:#0000ff" /></flowRegion><flowPara
         id="flowPara19758"
         style="font-size:40px;font-family:'Lobster 1.4';-inkscape-font-specification:'Lobster 1.4';fill:#0000ff">Lautenberg (NJ)</flowPara></flowRoot>    <flowRoot
       transform="matrix(1,0,0,0.90778602,162.10161,246.82467)"
       style="font-size:40px;font-style:normal;font-variant:normal;font-weight:bold;font-stretch:normal;line-height:125%;letter-spacing:0px;word-spacing:0px;fill:#0000ff;fill-opacity:1;stroke:none;font-family:Simpsonfont;-inkscape-font-specification:Simpsonfont Bold"
       id="flowRoot19760"
       xml:space="preserve"><flowRegion
         id="flowRegion19762"><rect
           style="font-size:40px;fill:#0000ff"
           y="152.36218"
           x="44.285713"
           height="61.428562"
           width="267.14285"
           id="rect19764" /></flowRegion><flowPara
         style="font-size:40px;font-family:'Lobster 1.4';-inkscape-font-specification:'Lobster 1.4';fill:#0000ff"
         id="flowPara19766">Cowan (MA)</flowPara></flowRoot>    <flowRoot
       xml:space="preserve"
       id="flowRoot19768"
       style="font-size:40px;font-style:normal;font-variant:normal;font-weight:bold;font-stretch:normal;line-height:125%;letter-spacing:0px;word-spacing:0px;fill:#ff0000;fill-opacity:1;stroke:none;font-family:Simpsonfont;-inkscape-font-specification:Simpsonfont Bold"
       transform="matrix(1,0,0,0.90778602,162.10161,315.9107)"><flowRegion
         id="flowRegion19770"><rect
           id="rect19772"
           width="175.71429"
           height="54.285713"
           x="44.285713"
           y="152.36218"
           style="font-size:40px;fill:#ff0000;fill-opacity:1" /></flowRegion><flowPara
         style="font-size:40px;font-family:'Lobster 1.4';-inkscape-font-specification:'Lobster 1.4';fill:#ff0000;fill-opacity:1"
         id="flowPara19869">Cruz (TX)</flowPara></flowRoot>    <flowRoot
       transform="matrix(1,0,0,0.90778602,161.78161,384.9968)"
       style="font-size:40px;font-style:normal;font-variant:normal;font-weight:bold;font-stretch:normal;line-height:125%;letter-spacing:0px;word-spacing:0px;fill:#ff0000;fill-opacity:1;stroke:none;font-family:Simpsonfont;-inkscape-font-specification:Simpsonfont Bold"
       id="flowRoot19776"
       xml:space="preserve"><flowRegion
         id="flowRegion19778"><rect
           style="font-size:40px;fill:#ff0000;fill-opacity:1"
           y="152.36218"
           x="44.285713"
           height="55.714275"
           width="200"
           id="rect19780" /></flowRegion><flowPara
         style="font-size:40px;font-family:'Lobster 1.4';-inkscape-font-specification:'Lobster 1.4';fill:#ff0000;fill-opacity:1"
         id="flowPara19784">Scott (SC)</flowPara></flowRoot>    <flowRoot
       xml:space="preserve"
       id="flowRoot19788"
       style="font-size:40px;font-style:normal;font-variant:normal;font-weight:bold;font-stretch:normal;line-height:125%;letter-spacing:0px;word-spacing:0px;fill:#ff0000;fill-opacity:1;stroke:none;font-family:Simpsonfont;-inkscape-font-specification:Simpsonfont Bold"
       transform="matrix(1,0,0,0.90778602,162.62161,454.08284)"><flowRegion
         id="flowRegion19790"><rect
           id="rect19792"
           width="208.57143"
           height="57.142849"
           x="44.285713"
           y="152.36218"
           style="font-size:40px;fill:#ff0000;fill-opacity:1" /></flowRegion><flowPara
         id="flowPara19794"
         style="font-size:40px;font-family:'Lobster 1.4';-inkscape-font-specification:'Lobster 1.4';fill:#ff0000;fill-opacity:1">Roberts (KS)</flowPara></flowRoot>    <flowRoot
       transform="matrix(1,0,0,0.90778602,162.62161,523.16889)"
       style="font-size:40px;font-style:normal;font-variant:normal;font-weight:bold;font-stretch:normal;line-height:125%;letter-spacing:0px;word-spacing:0px;fill:#ff0000;fill-opacity:1;stroke:none;font-family:Simpsonfont;-inkscape-font-specification:Simpsonfont Bold"
       id="flowRoot19796"
       xml:space="preserve"><flowRegion
         id="flowRegion19798"><rect
           style="font-size:40px;fill:#ff0000;fill-opacity:1"
           y="152.36218"
           x="44.285713"
           height="61.428562"
           width="238.57143"
           id="rect19800" /></flowRegion><flowPara
         style="font-size:40px;font-family:'Lobster 1.4';-inkscape-font-specification:'Lobster 1.4';fill:#ff0000;fill-opacity:1"
         id="flowPara19802">Inhofe (OK)</flowPara></flowRoot>    <flowRoot
       xml:space="preserve"
       id="flowRoot19804"
       style="font-size:40px;font-style:normal;font-variant:normal;font-weight:bold;font-stretch:normal;line-height:125%;letter-spacing:0px;word-spacing:0px;fill:#ff0000;fill-opacity:1;stroke:none;font-family:Simpsonfont;-inkscape-font-specification:Simpsonfont Bold"
       transform="matrix(1,0,0,0.90778602,162.62161,592.25494)"><flowRegion
         id="flowRegion19806"><rect
           id="rect19808"
           width="271.42856"
           height="64.285706"
           x="44.285713"
           y="152.36218"
           style="font-size:40px;fill:#ff0000;fill-opacity:1" /></flowRegion><flowPara
         id="flowPara19810"
         style="font-size:40px;font-family:'Lobster 1.4';-inkscape-font-specification:'Lobster 1.4';fill:#ff0000;fill-opacity:1">Barrasso (WY)</flowPara></flowRoot>    <flowRoot
       transform="matrix(1,0,0,0.90778602,162.18161,661.34099)"
       style="font-size:40px;font-style:normal;font-variant:normal;font-weight:bold;font-stretch:normal;line-height:125%;letter-spacing:0px;word-spacing:0px;fill:#ff0000;fill-opacity:1;stroke:none;font-family:Simpsonfont;-inkscape-font-specification:Simpsonfont Bold"
       id="flowRoot19812"
       xml:space="preserve"><flowRegion
         id="flowRegion19814"><rect
           style="font-size:40px;fill:#ff0000;fill-opacity:1"
           y="152.36218"
           x="44.285713"
           height="67.14286"
           width="250"
           id="rect19816" /></flowRegion><flowPara
         style="font-size:40px;font-family:'Lobster 1.4';-inkscape-font-specification:'Lobster 1.4';fill:#ff0000;fill-opacity:1"
         id="flowPara19818">Johnson (WI)</flowPara></flowRoot>    <flowRoot
       xml:space="preserve"
       id="flowRoot19820"
       style="font-size:40px;font-style:normal;font-variant:normal;font-weight:bold;font-stretch:normal;line-height:125%;letter-spacing:0px;word-spacing:0px;fill:#ff0000;fill-opacity:1;stroke:none;font-family:Simpsonfont;-inkscape-font-specification:Simpsonfont Bold"
       transform="matrix(1,0,0,0.90778602,162.62161,730.42704)"><flowRegion
         id="flowRegion19822"><rect
           id="rect19824"
           width="175.71429"
           height="54.285713"
           x="44.285713"
           y="152.36218"
           style="font-size:40px;fill:#ff0000" /></flowRegion><flowPara
         id="flowPara19826"
         style="font-size:40px;font-family:'Lobster 1.4';-inkscape-font-specification:'Lobster 1.4';fill:#ff0000">Lee (UT)</flowPara></flowRoot>    <path
       inkscape:connector-curvature="0"
       d="m 651.47783,157.66516 4.22044,-1.11302 0.88855,-2.78249 1.99914,0.18549 1.99915,3.71002 -2.4434,0.74198 -7.55238,0.18553 0.8885,-0.92751 z m -18.2145,1.2985 4.44255,-4.26651 3.10981,0 3.55406,2.4115 -4.66469,1.66949 -4.22044,1.66949 -2.22129,-1.48397 z m -67.62108,-35.68148 34.2911,-7.53069 4.39792,-1.04934 3.71942,-4.53675 7.26122,-2.69915 5.61432,7.16096 -4.71204,8.39474 -0.62827,2.36102 3.76964,4.19737 2.19895,-1.31167 3.4555,0 4.39789,4.19735 7.53928,9.70642 6.91098,0.78701 4.3979,-1.574 3.4555,-2.88571 -1.57069,-4.45969 -4.08376,-2.62336 -2.82724,1.31167 -1.8848,-2.09868 0.9424,-0.787 4.08378,-0.26234 3.45548,1.31167 3.76964,3.93505 1.88481,4.72204 0.62827,3.93501 -8.16753,2.36105 -7.53926,3.14801 -7.53926,7.3454 -3.76964,2.36102 0,-1.57401 4.71205,-2.36104 0.9424,-2.88568 -1.57067,-4.98438 -5.65445,2.36102 -1.57067,2.36102 0.9424,3.6727 -4.01526,1.62344 -5.33831,-7.34642 -6.59687,-7.08307 -4.02337,-2.9412 -12.69534,3.04461 -9.89532,1.70518 -40.17563,7.45204 -1.29758,-7.73706 1.25654,-17.18299 8.33484,-1.44286 13.19373,-2.09871 z"
       id="MA"
       class="state"
       style="fill:#0000ff;fill-opacity:1" />
    <path
       class="state"
       id="path19863"
       d="m 651.47783,219.91334 4.22044,-1.11303 0.88855,-2.78249 1.99914,0.1855 1.99915,3.71002 -2.4434,0.74198 -7.55238,0.18552 0.8885,-0.9275 z m -18.2145,1.2985 4.44255,-4.26651 3.10981,0 3.55406,2.41149 -4.66469,1.66949 -4.22044,1.6695 -2.22129,-1.48397 z m -67.62108,-35.68148 34.2911,-7.5307 4.39792,-1.04933 3.71942,-4.53676 7.26122,-2.69914 5.61432,7.16096 -4.71204,8.39474 -0.62827,2.36101 3.76964,4.19738 2.19895,-1.31168 3.4555,0 4.39789,4.19736 7.53928,9.70642 6.91098,0.78701 4.3979,-1.57401 3.4555,-2.8857 -1.57069,-4.45969 -4.08376,-2.62337 -2.82724,1.31167 -1.8848,-2.09867 0.9424,-0.78701 4.08378,-0.26233 3.45548,1.31167 3.76964,3.93504 1.88481,4.72204 0.62827,3.93502 -8.16753,2.36104 -7.53926,3.14801 -7.53926,7.34541 -3.76964,2.36101 0,-1.57401 4.71205,-2.36103 0.9424,-2.88568 -1.57067,-4.98438 -5.65445,2.36101 -1.57067,2.36103 0.9424,3.67269 -4.01526,1.62345 -5.33831,-7.34642 -6.59687,-7.08307 -4.02337,-2.9412 -12.69534,3.04461 -9.89532,1.70518 -40.17563,7.45204 -1.29758,-7.73706 1.25654,-17.18299 8.33484,-1.44286 13.19373,-2.09871 z"
       inkscape:connector-curvature="0"
       style="fill:#0000ff;fill-opacity:1" />
    <path
       class="state"
       id="path19865"
       d="m 552.60708,233.651 -4.07589,2.80659 0,3.1528 -3.40445,3.1528 -0.2837,1.65937 2.26964,1.32749 -0.2837,2.48906 -3.97184,1.16155 1.41851,2.82092 0.28369,1.16156 4.82295,0.33188 1.7022,2.65497 6.24145,2.48907 4.25553,1.65935 0,0.82969 -5.2353,2.76788 -2.83703,2.3231 -2.55332,2.82093 -3.97182,1.32749 -0.81157,1.64486 -0.42557,1.24453 -1.06915,2.67568 1.91685,2.30356 5.67403,2.98685 8.51104,2.32311 7.09253,0.66375 0.2837,1.49342 -1.41851,0.99561 0.56741,2.82093 1.4185,0 3.68812,-2.48904 1.41851,-4.97809 4.82292,-4.14841 5.39033,-6.63746 1.98591,-5.64182 -1.13481,-1.16157 -0.2837,-9.62431 -2.83702,-3.48465 -1.9859,0.82969 -4.82293,0.33186 -0.8511,-0.4978 1.98592,-0.99563 3.68811,-1.99123 0.11073,-1.12277 -0.67457,-3.52466 1.00622,-2.82092 -0.20615,-2.02109 -4.92702,-1.79665 -8.9363,-1.20685 -7.26088,-1.41818 -6.2925,-1.68922 z"
       inkscape:connector-curvature="0"
       style="fill:#ff0000;fill-opacity:1" />
    <path
       inkscape:connector-curvature="0"
       d="m 552.60708,310.1644 -4.07589,2.80659 0,3.1528 -3.40445,3.15279 -0.2837,1.65938 2.26964,1.32749 -0.2837,2.48905 -3.97184,1.16156 1.41851,2.82092 0.28369,1.16156 4.82295,0.33187 1.7022,2.65498 6.24145,2.48907 4.25553,1.65935 0,0.82969 -5.2353,2.76787 -2.83703,2.32311 -2.55332,2.82093 -3.97182,1.32749 -0.81157,1.64486 -0.42557,1.24453 -1.06915,2.67568 1.91685,2.30355 5.67403,2.98686 8.51104,2.32311 7.09253,0.66375 0.2837,1.49341 -1.41851,0.99562 0.56741,2.82092 1.4185,0 3.68812,-2.48904 1.41851,-4.97809 4.82292,-4.1484 5.39033,-6.63746 1.98591,-5.64182 -1.13481,-1.16157 -0.2837,-9.62431 -2.83702,-3.48465 -1.9859,0.82969 -4.82293,0.33185 -0.8511,-0.49779 1.98592,-0.99563 3.68811,-1.99123 0.11073,-1.12277 -0.67457,-3.52466 1.00622,-2.82093 -0.20615,-2.02108 -4.92702,-1.79665 -8.9363,-1.20685 -7.26088,-1.41818 -6.2925,-1.68922 z"
       id="path19867"
       class="state"
       style="fill:#0000ff" />
    <flowRoot
       xml:space="preserve"
       id="flowRoot19873"
       style="fill:black;stroke:none;stroke-opacity:1;stroke-width:1px;stroke-linejoin:miter;stroke-linecap:butt;fill-opacity:1;font-family:Simpsonfont;font-style:normal;font-weight:bold;font-size:40px;line-height:125%;letter-spacing:0px;word-spacing:0px;-inkscape-font-specification:Simpsonfont Bold;font-stretch:normal;font-variant:normal"><flowRegion
         id="flowRegion19875"><rect
           id="rect19877"
           width="890"
           height="1100"
           x="-54.285713"
           y="48.076469" /></flowRegion><flowPara
         id="flowPara19879" /></flowRoot>    <path
       class="state"
       id="path19881"
       d="m 651.47783,424.81363 4.22044,-1.11303 0.88855,-2.78249 1.99914,0.1855 1.99915,3.71002 -2.4434,0.74198 -7.55238,0.18552 0.8885,-0.9275 z m -18.2145,1.29849 4.44255,-4.26651 3.10981,0 3.55406,2.4115 -4.66469,1.66949 -4.22044,1.66949 -2.22129,-1.48397 z m -67.62108,-35.68148 34.2911,-7.53069 4.39792,-1.04934 3.71942,-4.53675 7.26122,-2.69915 5.61432,7.16096 -4.71204,8.39475 -0.62827,2.36101 3.76964,4.19738 2.19895,-1.31168 3.4555,0 4.39789,4.19736 7.53928,9.70642 6.91098,0.787 4.3979,-1.574 3.4555,-2.88571 -1.57069,-4.45969 -4.08376,-2.62336 -2.82724,1.31167 -1.8848,-2.09868 0.9424,-0.787 4.08378,-0.26233 3.45548,1.31167 3.76964,3.93504 1.88481,4.72204 0.62827,3.93501 -8.16753,2.36105 -7.53926,3.14801 -7.53926,7.3454 -3.76964,2.36102 0,-1.57401 4.71205,-2.36103 0.9424,-2.88568 -1.57067,-4.98438 -5.65445,2.36101 -1.57067,2.36103 0.9424,3.67269 -4.01526,1.62345 -5.33831,-7.34643 -6.59687,-7.08307 -4.02337,-2.9412 -12.69534,3.04462 -9.89532,1.70517 -40.17563,7.45205 -1.29758,-7.73706 1.25654,-17.183 8.33484,-1.44286 13.19373,-2.09871 z"
       inkscape:connector-curvature="0"
       style="fill:#0000ff" />
    <path
       inkscape:connector-curvature="0"
       d="m 570.33254,438.83563 8.42899,0.34199 11.55005,0.36001 -0.86723,7.38697 -0.11024,5.71712 0.0253,0.65561 1.61361,1.20254 0.73799,0.45577 0.4399,-0.17627 0.13869,-0.57246 0.4236,0.56802 0.78441,0.0138 -8.4e-4,-0.45574 0.62034,0.30463 0.423,0.12877 -0.13346,1.24953 1.51865,0.0294 1.08667,0.37703 1.46908,0.16547 0.88461,0.65473 0.78904,-0.65385 1.38371,0.19365 0.82501,1.01564 0.39932,0.10108 -0.0596,0.61893 0.82228,0.24951 0.86559,-0.64712 0.79236,0.19365 0.82815,0.0112 0.34661,0.76701 2.35071,0.66589 0.59176,-0.24152 0.5533,-1.31569 0.12657,0 0.33674,0.0257 0.45655,0.65147 1.45984,0.20953 1.23961,0.35362 1.27252,0.37665 0.68372,-0.30706 0.26514,-0.792 1.65425,0.0139 0.67189,0.29314 1.03985,-0.66341 0.40997,0.0139 0.31613,0.50549 1.50622,0 0.56421,-0.63887 0.69368,0.12825 0.7229,0.75686 1.30779,0.64376 1.06195,0.25505 0.56226,0.25189 0.90889,0.62902 1.1304,-0.41816 0.99966,0.35866 0.20944,1.92296 -0.0148,3.05552 0.25477,3.00256 0.26085,1.13536 0.9938,1.39195 0.33365,1.55914 1.5661,1.7441 0.0728,0.99045 0.27725,0.24748 -0.2712,2.63914 -1.06689,1.57671 0.56945,0.678 -0.23406,0.73634 -0.24873,2.33185 -0.55881,1.05125 0.10954,1.10299 -2.10434,0.49923 -3.66319,1.42553 -0.36031,0.61095 -0.96084,0.61094 -0.78068,0.45821 -0.48042,0.25456 -2.10183,1.6801 -1.02089,0.66185 -1.98172,1.01824 -2.10184,0.76368 -2.34203,1.06916 -0.66057,0.4582 -2.16189,1.12007 -1.2611,0.20365 -1.44125,1.731 -1.50131,0.10182 -0.36032,0.61094 0.84074,0.61095 -0.54047,1.73101 -0.48042,1.42553 -0.42036,1.22189 -0.30027,1.42554 0.30027,0.76367 0.66057,2.18922 0.36032,1.93466 0.66057,0.8655 -0.36032,0.45821 -1.14099,0.61094 -2.10183,-1.22189 -2.04177,-0.35638 -0.48043,0.15274 -1.20104,-0.20365 -1.56137,-0.96733 -1.92167,-0.35638 -2.82246,-1.06915 -0.78068,-1.22189 -0.48041,-2.03648 -1.20105,-0.61094 -0.24021,-0.71278 0.24021,-0.20364 0.12011,-1.06916 -0.48043,-0.20364 -0.2402,-0.30547 0.48041,-1.37463 -0.60051,-0.71276 -1.20105,-0.4073 -1.2611,-1.37462 -1.32115,-2.08739 -1.56136,-0.81459 0.0601,-0.61094 -1.98172,-3.86932 -0.30026,-1.32371 -0.66058,-0.61094 -0.0601,-0.45822 -2.22194,-1.68009 -0.96083,-0.96732 0,-0.35639 -0.96084,-0.66185 -2.52219,-0.35639 -2.76241,-0.20364 -1.141,-0.71277 -1.68146,0.56003 -1.32115,0.45821 -0.84073,1.01824 -0.36032,1.17097 -1.6214,1.93466 -0.90079,0.76367 -0.96084,-0.30547 -0.66057,-0.35639 -0.72063,-0.20364 -1.44126,-0.71277 0,-0.20365 -0.66057,-0.61094 -1.92167,-0.66185 -2.76241,-2.44377 -0.84073,-1.47646 0,-2.54559 -1.20105,-2.03648 -0.18016,-0.8655 -0.60052,-0.30548 -0.42037,-0.66185 -1.86161,-0.66186 -0.48042,-0.50911 -2.64231,-2.4947 -0.48041,-1.01824 -1.74152,-0.71276 -0.54047,-1.37464 -0.96085,-0.91641 -0.72062,-0.15273 -0.24117,-1.47314 2.97247,0.21601 10.78567,0.864 10.78571,0.504 0.8297,-6.12914 1.44375,-17.49602 0.59449,-5.90412 0.50956,0.009 m 36.78661,72.32802 -0.21019,-2.24013 -1.02089,-2.26559 -0.21018,-2.21468 0.57049,-2.59652 1.23108,-2.16377 1.29113,-1.70555 1.17103,-1.12007 0.2402,0.0764 -1.77154,2.08739 -1.62142,2.06194 -0.75066,2.0874 -0.12011,1.62919 0.33029,1.93466 0.96084,2.26559 0.18016,1.62919 0.0601,0.45821 -0.33029,0.0764 z"
       id="TX"
       class="state"
       inkscape:transform-center-y="-10.374647"
       style="fill:#ff0000;fill-opacity:1" />
    <path
       inkscape:connector-curvature="0"
       d="m 596.0423,575.82064 -1.77706,0.8801 -2.58657,-1.17403 -0.64664,-1.90779 -1.29328,-3.22857 -2.26326,-1.9078 -2.58657,-0.58701 -1.6166,-4.40259 -2.74824,-5.42988 -4.20317,-1.76105 -2.1016,-1.76103 -1.29328,-2.34805 -2.10159,-1.76105 -2.26325,-1.17403 -2.26325,-2.64155 -3.07155,-2.05454 -4.52651,-1.6143 -0.48498,-1.32077 -2.4249,-2.64156 -0.48499,-1.32079 -3.39488,-4.6961 -3.39487,0.14675 -4.04152,-2.2013 -1.29328,-1.17403 -0.32332,-1.61428 0.8083,-1.76104 2.26325,-0.88053 -0.51082,-2.078 5.7681,-2.1211 9.1155,-4.16583 7.77473,-0.73377 16.1144,-0.38353 2.63825,1.70431 1.6791,3.04854 4.30235,-0.55373 12.60953,-1.32079 2.90989,0.73377 12.60954,6.89742 10.10808,7.37274 -5.42117,4.95501 -2.58657,5.57662 -0.48498,5.72337 -1.6166,0.73377 -1.13163,2.4948 -2.4249,0.58701 -2.10159,3.22857 -2.74823,2.4948 -2.26324,3.08182 -1.61661,0.73376 -3.55653,3.08182 -2.90989,0.14675 0.96997,2.93506 -5.01148,4.98961 -2.10159,1.17402 z"
       id="SC"
       class="state"
       style="fill:#ff0000;fill-opacity:1" />
    <path
       inkscape:connector-curvature="0"
       d="m 646.466,639.50333 -10.2222,0.12742 -37.3373,-0.28497 -36.09652,-1.28243 -19.95284,-0.78369 3.15441,-40.25918 17.89005,0.4208 32.63869,0.52441 35.88894,0.61552 4.12803,0 1.76961,1.34773 1.63453,-0.0134 1.32883,0.63103 -0.0506,1.87552 -1.48169,1.07535 -0.26915,1.39121 1.4931,2.12052 2.39174,1.99134 1.88541,1.00623 1.05377,7.00589 0.15322,22.49063 z"
       id="KS"
       class="state"
       style="fill:#ff0000;fill-opacity:1" />
    <path
       inkscape:connector-curvature="0"
       d="m 556.56508,661.48883 -13.02098,-0.76094 -0.68696,6.54526 15.97197,0.69136 25.01738,0.77905 -1.822,14.59279 -0.35686,10.65689 0.17843,0.95639 3.39009,2.18603 1.60583,0.68313 0.53528,-0.13662 0.53528,-1.22964 1.07056,1.09301 1.60583,0 0,-0.81976 2.14113,0.81976 -0.35689,2.32266 3.21165,0.13662 1.96274,0.68314 3.21166,0.40988 1.96264,1.09302 1.78431,-1.22964 2.67637,0.40987 1.96272,2.0494 0.71363,0 0,1.36627 1.78432,0.40989 1.78423,-1.36628 1.42743,0.40989 1.96265,0 0.71371,1.50289 4.91762,1.24241 1.07052,-0.40987 1.42743,-2.45929 0.89212,0 0.89212,1.22964 3.21166,0.40988 2.85484,0.81977 2.31955,0.54651 1.42742,-0.54651 0.53522,-1.5029 3.39014,0 1.60583,0.54651 2.14106,-1.22965 0.8922,0 0.53522,0.95639 3.21166,0 1.24901,-1.22964 1.42743,0.27325 1.60583,1.50291 2.49795,1.093 2.49795,0.54652 1.51491,0.66868 -0.30367,-22.24121 -1.07053,-6.55814 -0.12526,-5.30218 -1.12375,-3.90701 -0.60734,-4.29062 -0.0531,-2.2806 -9.47202,0.19049 -36.22023,-0.27325 -35.15008,-1.22966 -18.95779,-0.81975 z"
       id="OK"
       class="state"
       style="fill:#ff0000;fill-opacity:1" />
    <path
       inkscape:connector-curvature="0"
       d="m 620.82608,734.85009 -68.88089,-6.57243 -9.08805,43.2029 73.08953,6.63516 4.87941,-43.26563 z"
       id="WY"
       class="state"
       style="fill:#ff0000;fill-opacity:1" />
    <path
       inkscape:connector-curvature="0"
       d="m 598.98434,842.77771 -0.0448,-1.7614 -0.78873,-2.52515 -0.4326,-3.42698 -0.75695,-1.35276 0.64885,-1.71349 0.5407,-1.62331 0.97322,-1.44294 -0.43253,-1.89386 -0.43259,-1.98404 0.32442,-0.99203 1.29765,-1.35276 0.10817,-1.53313 -0.54069,-0.72146 0.43252,-1.44295 -0.30269,-2.32667 1.83835,-3.15643 1.9465,-3.78772 0.10817,-1.26257 -0.21626,-0.54111 -0.5407,0.27055 -2.81163,3.51717 -1.83834,2.2546 -1.29769,0.99203 -0.54069,1.26256 -1.30772,0.45092 -0.75697,1.08221 -0.97325,-0.18037 -0.10814,-0.99202 0.86512,-1.35275 1.4058,-2.61534 1.18953,-0.90184 0.66277,-1.31534 -1.71273,-1.06069 -1.32101,-5.78332 -2.373,-0.74863 -1.3019,-1.28773 -8.11388,-1.51829 -1.92375,-0.56458 -5.49397,-1.20905 -5.29651,-0.64642 -2.51861,-2.86219 -0.50196,0.30906 -0.80131,-0.0901 -0.43256,-0.63129 -0.89236,0.16544 -0.75698,0.0902 -1.18952,0.5411 -0.64884,-0.36073 0.43256,-1.08222 1.29767,-1.71349 0.75697,-0.63128 -1.29767,-0.81165 -1.4058,0.45091 -1.94651,1.08221 -4.97438,1.80367 -1.9465,0.36074 -1.9465,-0.27055 -0.6567,-0.48994 -1.41592,1.58163 -0.15293,1.53047 0,4.71895 -0.76466,0.89278 -3.51743,2.16816 -1.52931,3.31603 0.30586,0.12753 1.68225,1.14786 0.45879,1.78555 -1.22345,1.78555 0,2.16817 0.30586,3.69864 1.98811,1.65802 2.29398,0 1.22345,1.78555 2.29397,0.25508 2.59984,3.18848 4.74088,2.29571 1.37638,1.53047 0.61174,4.14503 0.45879,1.84932 1.52931,0.89277 0.15293,0.76524 -1.37638,1.91308 0.15293,1.78556 1.68225,2.16817 1.68225,0.63769 1.98811,0.25508 0.89792,0.76991 30.30124,-1.48918 z"
       id="WI"
       class="state"
       style="fill:#ff0000;fill-opacity:1" />
    <path
       inkscape:connector-curvature="0"
       d="m 590.46323,923.14035 -47.60609,-6.19864 11.70277,-58.75926 26.59168,4.56594 -0.84402,5.55029 -1.31401,6.87761 4.43819,0.48472 9.32608,0.9423 4.66742,0.44673 -6.96202,46.09031 z"
       id="UT"
       class="state"
       style="fill:#ff0000" />
    <flowRoot
       xml:space="preserve"
       id="flowRoot19932"
       style="font-size:40px;font-style:normal;font-variant:normal;font-weight:bold;font-stretch:normal;line-height:125%;letter-spacing:0px;word-spacing:0px;fill:#000000;fill-opacity:1;stroke:none;font-family:Simpsonfont;-inkscape-font-specification:Simpsonfont Bold"
       transform="matrix(1.1794116,0,0,1.4866218,-6.3301644,1.757055)"><flowRegion
         id="flowRegion19934"><rect
           id="rect19936"
           width="705.71423"
           height="134.28572"
           x="28.571428"
           y="3.7907536" /></flowRegion><flowPara
         id="flowPara19938"
         style="font-size:36.83216858px;font-style:normal;font-variant:normal;font-weight:bold;font-stretch:normal;font-family:'Lobster 1.4';-inkscape-font-specification:'Lobster 1.4 Bold'"><flowSpan
           style="font-size:32.22814941px"
           id="flowSpan19942">The Most Extreme Senators in the 113th Congress </flowSpan></flowPara></flowRoot>    <flowRoot
       xml:space="preserve"
       id="flowRoot3103"
       style="font-size:40px;font-style:normal;font-variant:normal;font-weight:bold;font-stretch:normal;line-height:125%;letter-spacing:0px;word-spacing:0px;fill:#000000;fill-opacity:1;stroke:none;font-family:Simpsonfont;-inkscape-font-specification:Simpsonfont Bold"
       transform="translate(9.0915771,20)"><flowRegion
         id="flowRegion3105"><rect
           id="rect3107"
           width="688.57141"
           height="107.14286"
           x="42.857143"
           y="935.2193" /></flowRegion><flowPara
         id="flowPara3109"
         style="font-size:25px;font-style:normal;font-variant:normal;font-weight:bold;font-stretch:normal;font-family:'Lobster 1.4';-inkscape-font-specification:'Lobster 1.4 Bold'">Extremity measured by difference between the &quot;typical&quot; vote and the </flowPara><flowPara
         style="font-size:25px;font-style:normal;font-variant:normal;font-weight:bold;font-stretch:normal;font-family:'Lobster 1.4';-inkscape-font-specification:'Lobster 1.4 Bold'"
         id="flowPara3111">vote of the given senator.</flowPara><flowPara
         style="font-size:25px;font-style:normal;font-variant:normal;font-weight:bold;font-stretch:normal;font-family:'Lobster 1.4';-inkscape-font-specification:'Lobster 1.4 Bold'"
         id="flowPara3113">Originally on vikparuchuri.com </flowPara></flowRoot>  </g>
</svg>
